<svg id="Layer_1" data-name="Layer 1" xmlns="http://www.w3.org/2000/svg" viewBox="0 0 566.93 566.93"><defs><style>.cls-1,.cls-15,.cls-16,.cls-18,.cls-19,.cls-9{fill:none;}.cls-1,.cls-10,.cls-11,.cls-12,.cls-13,.cls-14,.cls-15,.cls-16,.cls-2,.cls-3,.cls-4,.cls-5,.cls-6,.cls-7,.cls-8,.cls-9{stroke:#000;stroke-linejoin:round;}.cls-1,.cls-15,.cls-16,.cls-3,.cls-4,.cls-5,.cls-6,.cls-7{stroke-linecap:round;}.cls-1,.cls-10,.cls-11,.cls-12,.cls-13,.cls-14,.cls-15,.cls-16,.cls-17,.cls-18,.cls-19,.cls-2,.cls-3,.cls-4,.cls-5,.cls-6,.cls-7,.cls-8,.cls-9{stroke-width:3px;}.cls-2{fill:#ed4f4f;}.cls-12,.cls-3{fill:#fff396;}.cls-4{fill:#a5d2f3;}.cls-5{fill:#6db7ec;}.cls-6{fill:#8dc6f0;}.cls-7{fill:#75bbed;}.cls-8{fill:#5aade9;}.cls-10,.cls-17{fill:#fff;}.cls-11{fill:#f06f6f;}.cls-13{fill:#3a9de5;}.cls-14{fill:#a8d4f4;}.cls-15{stroke-dasharray:93.64 6.07 49.57 6.07;}.cls-16{stroke-dasharray:38.56 0 93.64 6.07 49.57 6.07;}.cls-17,.cls-18,.cls-19{stroke:#30363d;stroke-miterlimit:10;}.cls-18{stroke-dasharray:1.93 1.93;}.cls-19{stroke-dasharray:2 2;}</style></defs><title>home_page_illlustrations</title><line class="cls-1" x1="215.48" y1="156.15" x2="187.84" y2="123.21"/><line class="cls-1" x1="374.68" y1="345.88" x2="346.3" y2="312.05"/><path class="cls-1" d="M379.52,316.85a128.91,128.91,0,1,1-160.7-195.52"/><path class="cls-2" d="M265.15,363.68a13.57,13.57,0,0,0-.12,1.81,13.87,13.87,0,0,0,.7,4.33,14.23,14.23,0,0,0,3.88,6,15.79,15.79,0,0,0,21,.09,14.25,14.25,0,0,0,3.82-5.58,13.69,13.69,0,0,0,.86-4.79,13.36,13.36,0,0,0-.12-1.77c-5,0-10,.82-15,.82S270.16,363.69,265.15,363.68Z"/><polygon class="cls-2" points="290.71 404.63 280.18 404.63 269.66 404.63 269.66 379.83 290.71 379.83 290.71 404.63"/><path class="cls-2" d="M340.48,439H219.89a68.16,68.16,0,0,1,51.61-35.84,69.22,69.22,0,0,1,8.69-.55A68.14,68.14,0,0,1,340.48,439Z"/><line class="cls-1" x1="230.28" y1="425.29" x2="270.08" y2="425.29"/><line class="cls-1" x1="277.87" y1="425.29" x2="285.06" y2="425.29"/><rect class="cls-3" x="151.18" y="440" width="259.67" height="9.1"/><path class="cls-4" d="M206.86,155.64c-20.28,23.59-8.91,74.53,27.36,117.75l.21.25L197.7,304.47A108.26,108.26,0,0,1,206.86,155.64Z"/><path class="cls-4" d="M350,317.56l.21.25a108.25,108.25,0,0,1-152.5-13.34l36.73-30.82C272.84,319.26,324.53,338.93,350,317.56Z"/><path class="cls-5" d="M326.82,196.13l-.21-.25c-36.27-43.22-84.46-63.27-111.21-47.39a108.26,108.26,0,0,1,148.16,16.82Z"/><path class="cls-5" d="M363.55,165.31a108.25,108.25,0,0,1-13.34,152.5l-.21-.25c25.47-21.37,15.07-75.69-23.18-121.43Z"/><path class="cls-6" d="M211,152l69.59,82.93-46.19,38.76-.21-.25c-36.27-43.22-47.64-94.16-27.36-117.75,0,0,0,0,0,0C208.24,154.36,209.61,153.15,211,152Z"/><path class="cls-7" d="M326.61,195.88l.21.25-46.19,38.76L211,152c1.43-1.2,2.86-2.34,4.32-3.44,0,0,0,0,0,0C242.15,132.61,290.34,152.66,326.61,195.88Z"/><path class="cls-8" d="M215.36,148.51c-1.47,1.1-2.9,2.25-4.32,3.44s-2.8,2.41-4.14,3.66a33.55,33.55,0,0,1,8.46-7.1Z"/><path class="cls-7" d="M326.82,196.13c38.25,45.74,48.65,100.06,23.18,121.43l-69.37-82.67Z"/><line class="cls-9" x1="211.04" y1="151.96" x2="210.84" y2="151.71"/><path class="cls-6" d="M280.63,234.89,350,317.56c-25.47,21.37-77.16,1.7-115.56-43.91Z"/><polyline class="cls-1" points="392.36 327.27 407.9 341.74 407.9 408.64"/><polygon class="cls-10" points="410.55 462.31 368.38 462.31 359.95 379.43 418.98 379.43 410.55 462.31"/><polygon class="cls-11" points="414.34 442 364.59 442 359.95 399.73 418.98 399.73 414.34 442"/><rect class="cls-2" x="350.72" y="370.95" width="77.49" height="8.21"/><polygon class="cls-2" points="421.93 370.95 357 370.95 359.95 361.7 418.98 361.7 421.93 370.95"/><circle class="cls-12" cx="390.22" cy="419.42" r="11.44"/><rect class="cls-13" x="128.86" y="410.76" width="24.34" height="24.34"/><path class="cls-13" d="M98.26,410.77h27.66a2.83,2.83,0,0,1,2.81,2.57l3.32,36.4a2.83,2.83,0,0,1-2.81,3.08H94.94a2.83,2.83,0,0,1-2.81-3.08l3.32-36.4A2.83,2.83,0,0,1,98.26,410.77Z"/><rect class="cls-13" x="85.41" y="451.94" width="51.73" height="10.37" rx="1.86" ry="1.86"/><path class="cls-13" d="M156.31,410.77H184a2.83,2.83,0,0,1,2.81,2.57l3.32,36.4a2.83,2.83,0,0,1-2.81,3.08H153a2.83,2.83,0,0,1-2.81-3.08l3.32-36.4A2.83,2.83,0,0,1,156.31,410.77Z"/><rect class="cls-13" x="142.79" y="451.94" width="52.4" height="10.37" rx="1.86" ry="1.86"/><rect class="cls-13" x="98.2" y="384.2" width="85.22" height="26.57" rx="2.78" ry="2.78"/><rect class="cls-13" x="103.35" y="360.38" width="18.63" height="23.81" rx="3.34" ry="3.34"/><rect class="cls-13" x="161.4" y="360.38" width="18.63" height="23.81" rx="3.34" ry="3.34"/><rect class="cls-13" x="105.64" y="352.75" width="14.05" height="7.59" rx="1.48" ry="1.48"/><rect class="cls-13" x="163.69" y="352.75" width="14.05" height="7.59" rx="1.48" ry="1.48"/><rect class="cls-14" x="114.65" y="398.41" width="50.78" height="22.43" rx="4.03" ry="4.03"/><circle class="cls-13" cx="128.14" cy="409.47" r="5.04"/><circle class="cls-13" cx="151.47" cy="409.47" r="5.04"/><line class="cls-1" x1="79.9" y1="462.31" x2="111.66" y2="462.31"/><line class="cls-15" x1="111.66" y1="462.31" x2="262.98" y2="462.31"/><line class="cls-16" x1="267.01" y1="462.31" x2="457.89" y2="462.31"/><line class="cls-1" x1="460.92" y1="462.31" x2="492.68" y2="462.31"/><circle class="cls-17" cx="417.91" cy="268.27" r="9.02"/><rect class="cls-1" x="98.25" y="222.86" width="22.71" height="22.71" transform="translate(-133.51 146.1) rotate(-45)"/><line class="cls-1" x1="241.8" y1="98.18" x2="294.92" y2="98.18"/><line class="cls-1" x1="120.71" y1="318.89" x2="147.17" y2="318.89"/><path class="cls-18" d="M385.17,134.05a8.65,8.65,0,0,0,8.62-8.62h0a8.62,8.62,0,1,0-17.25,0h0A8.65,8.65,0,0,0,385.17,134.05Z"/><rect class="cls-19" x="79" y="146.06" width="13.59" height="13.59" rx="6.8" ry="6.8"/></svg>